<?xml version="1.0" standalone="no"?>
<!DOCTYPE svg PUBLIC "-//W3C//DTD SVG 20010904//EN"
 "http://www.w3.org/TR/2001/REC-SVG-20010904/DTD/svg10.dtd">
<svg version="1.0" xmlns="http://www.w3.org/2000/svg"
 width="680.000000pt" height="680.000000pt" viewBox="0 0 680.000000 680.000000"
 preserveAspectRatio="xMidYMid meet">
<metadata>
Created by potrace 1.11, written by Peter Selinger 2001-2013
</metadata>
<g transform="translate(0.000000,680.000000) scale(0.100000,-0.100000)"
fill="#000000" stroke="none">
<path d="M3319 6798 c-1 -2 -2 -99 -3 -215 -1 -136 2 -214 9 -216 5 -2 44 -3
85 -3 l75 1 0 215 0 215 -82 3 c-46 2 -84 2 -84 0z"/>
<path d="M2005 6439 c-46 -25 -69 -43 -67 -54 2 -8 50 -94 108 -190 l105 -175
70 37 c38 21 69 42 69 46 0 5 -44 84 -99 175 -54 92 -102 174 -107 183 -8 15
-17 12 -79 -22z"/>
<path d="M4659 6363 c-35 -60 -68 -116 -74 -125 -42 -69 -75 -129 -75 -136 0
-5 31 -25 69 -45 72 -38 71 -39 96 6 5 9 52 87 103 172 50 85 92 156 92 159 0
6 -128 76 -139 76 -5 0 -37 -48 -72 -107z"/>
<path d="M3358 6125 c-2 -3 -46 -7 -98 -10 -214 -13 -522 -82 -651 -146 -20
-10 -39 -15 -43 -12 -3 4 -6 1 -6 -5 0 -7 -7 -12 -17 -12 -22 0 -209 -99 -313
-167 -348 -226 -613 -545 -783 -943 -43 -100 -108 -327 -121 -425 -3 -22 -9
-65 -13 -95 -10 -70 -10 -388 -1 -460 12 -88 27 -172 37 -208 5 -18 10 -36 11
-40 0 -4 5 -25 11 -47 6 -22 12 -47 14 -55 19 -90 150 -373 231 -498 117 -179
289 -371 434 -483 84 -65 153 -143 188 -212 27 -54 39 -84 42 -102 1 -3 7 -24
14 -47 8 -29 13 -122 14 -277 1 -128 4 -243 7 -255 28 -99 88 -171 178 -211
l61 -28 836 0 c780 0 840 1 894 18 77 24 145 86 180 164 27 60 27 62 28 302 1
197 4 254 19 308 35 129 109 238 223 326 253 196 462 468 601 780 31 69 103
283 110 329 3 17 8 38 10 46 9 31 18 90 33 210 14 117 7 433 -13 530 -2 14
-10 50 -16 80 -29 147 -84 308 -157 460 -50 106 -139 257 -169 288 -7 7 -13
16 -13 20 0 4 -12 21 -26 37 -14 17 -42 51 -62 78 -56 73 -247 255 -347 329
-74 55 -253 168 -315 199 -189 94 -406 165 -610 199 -109 18 -127 20 -250 25
-69 4 -130 8 -137 10 -6 2 -13 2 -15 0z m259 -180 c93 -12 119 -16 188 -30
158 -32 296 -80 460 -160 200 -97 350 -204 511 -362 98 -97 103 -104 222 -258
72 -94 190 -328 237 -470 40 -119 57 -190 71 -284 4 -25 9 -55 12 -66 12 -49
9 -404 -4 -485 -17 -110 -51 -259 -67 -300 -3 -8 -17 -48 -32 -89 -58 -165
-187 -392 -303 -530 -69 -83 -208 -219 -282 -278 -36 -28 -86 -73 -111 -100
-43 -46 -109 -135 -109 -147 0 -4 -11 -29 -24 -56 -21 -44 -36 -91 -38 -117 0
-5 -5 -19 -10 -33 -6 -14 -12 -134 -13 -266 -3 -267 -9 -301 -58 -336 -29 -21
-45 -23 -184 -26 l-152 -4 1 301 c0 195 -4 317 -11 348 -16 64 -68 133 -130
173 -28 19 -51 38 -51 44 0 6 21 72 46 146 25 74 47 142 49 150 2 8 18 57 37
108 l34 93 79 3 c170 7 324 123 374 282 13 41 14 41 65 42 184 4 343 132 392
314 19 72 9 211 -18 245 -6 8 -3 15 9 22 10 5 33 18 50 28 57 31 120 101 154
171 32 63 34 74 34 167 0 117 -21 180 -82 256 -37 45 -135 119 -158 119 -7 0
-5 25 9 81 19 80 18 113 -7 217 -21 82 -119 195 -210 240 -57 29 -75 33 -158
39 l-66 5 -14 41 c-17 52 -77 144 -115 177 -144 126 -368 142 -518 38 -47 -33
-114 -108 -140 -158 -45 -86 -46 -109 -46 -940 l0 -790 -140 0 -140 0 0 795
c0 437 0 797 0 800 -3 24 -35 113 -51 138 -10 18 -22 38 -25 46 -12 24 -80 88
-121 114 -169 107 -407 73 -538 -76 -39 -44 -78 -114 -88 -158 -6 -25 -11 -26
-82 -32 -176 -13 -325 -138 -370 -309 -16 -60 -12 -168 8 -223 l15 -40 -33
-15 c-51 -24 -127 -89 -157 -134 -127 -196 -77 -431 120 -568 23 -16 42 -26
42 -22 0 3 6 1 14 -5 11 -9 10 -20 -4 -64 -22 -64 -20 -161 4 -238 49 -155
216 -279 375 -281 47 0 53 -3 63 -26 83 -204 215 -301 411 -302 37 0 59 -4 61
-12 28 -91 149 -457 156 -470 8 -14 0 -24 -45 -52 -53 -34 -108 -97 -126 -144
-18 -47 -21 -93 -21 -384 l0 -298 -138 0 c-160 0 -196 10 -231 66 -22 36 -23
46 -24 283 -1 221 -4 254 -24 326 -49 175 -128 287 -301 425 -68 55 -203 189
-256 254 -21 27 -44 54 -49 60 -27 28 -130 193 -171 272 -71 138 -135 313
-160 439 -2 11 -6 29 -9 40 -2 11 -6 30 -9 42 -21 95 -29 455 -13 558 16 105
20 122 39 200 34 141 98 308 164 430 37 68 118 197 142 226 7 8 35 43 64 79
116 145 312 314 488 423 86 53 261 137 335 161 28 9 59 20 70 25 11 5 56 18
100 29 71 18 117 28 220 47 17 3 66 8 110 12 44 3 81 6 83 8 5 4 274 -4 319
-10z m444 -649 c156 -67 197 -280 78 -404 -35 -36 -104 -73 -142 -74 -38 -2
-42 -13 -39 -92 l4 -76 45 5 c108 11 215 70 282 153 33 42 86 152 73 152 -4 0
-1 4 7 9 22 14 105 5 148 -18 96 -49 153 -150 139 -249 -9 -69 -35 -105 -76
-109 -76 -8 -193 -62 -237 -109 l-21 -23 58 -51 c32 -27 61 -50 65 -50 3 0 21
11 38 24 75 56 193 62 276 14 159 -90 165 -316 11 -413 -59 -37 -77 -37 -133
-1 -59 37 -102 53 -176 65 l-51 8 0 -83 c0 -77 2 -84 20 -84 42 0 124 -40 161
-79 145 -157 33 -411 -181 -409 -34 0 -37 3 -58 57 -56 144 -189 246 -349 266
l-41 5 -4 -57 c-4 -73 0 -103 15 -108 7 -2 30 -9 53 -14 50 -13 118 -71 144
-122 83 -161 -46 -364 -224 -353 -74 5 -116 24 -168 76 -71 72 -71 64 -69 779
1 177 2 188 24 220 63 94 203 77 243 -29 l17 -42 56 1 c31 1 61 0 66 -1 6 -1
17 -2 26 -1 30 2 5 101 -44 175 -23 36 -53 61 -107 90 -64 35 -168 44 -235 21
-21 -8 -41 -13 -43 -11 -8 9 -1 754 8 785 19 66 92 148 142 158 16 3 31 9 33
13 8 13 128 3 166 -14z m-1104 -22 c28 -13 63 -41 79 -61 53 -70 55 -84 54
-486 0 -204 -2 -372 -4 -375 -2 -2 -15 2 -28 9 -41 22 -153 20 -216 -3 -99
-37 -186 -143 -194 -238 -3 -35 -3 -35 45 -40 26 -4 50 -4 53 -1 2 3 18 5 34
5 16 1 30 4 30 9 0 14 31 68 50 87 36 36 107 44 155 17 77 -43 75 -32 75 -501
0 -261 -3 -432 -10 -456 -16 -58 -68 -120 -128 -152 -45 -23 -63 -27 -121 -25
-245 10 -330 314 -128 459 15 11 35 21 45 23 9 2 17 4 17 5 0 1 14 4 30 6 40
7 43 11 45 64 4 105 3 108 -32 105 -98 -8 -182 -44 -250 -107 -53 -49 -104
-126 -119 -180 l-10 -37 -59 3 c-33 2 -67 9 -76 17 -9 8 -18 12 -20 9 -6 -12
-86 65 -104 101 -26 49 -33 132 -17 187 27 89 125 167 219 171 14 1 17 15 20
82 l3 81 -59 -6 c-59 -6 -142 -38 -194 -74 -42 -29 -90 -14 -152 48 -153 153
-47 406 171 410 66 2 111 -11 154 -45 19 -14 37 -25 40 -25 4 0 34 23 67 52
l59 51 -33 30 c-57 50 -166 97 -238 101 -58 3 -87 151 -46 238 38 80 124 138
210 142 l51 3 29 -70 c58 -139 186 -234 343 -253 l41 -5 0 43 c0 24 1 48 2 53
1 6 2 22 1 37 -1 23 -7 29 -43 39 -196 52 -260 273 -118 411 80 77 173 91 277
42z m576 -1934 c2 -3 7 -30 11 -60 7 -66 22 -110 58 -171 27 -45 102 -122 129
-131 11 -4 -2 -54 -63 -239 -43 -129 -84 -252 -92 -274 l-14 -40 -162 0 -162
0 -32 90 c-17 50 -32 93 -33 98 -1 4 -28 86 -60 183 -56 170 -57 176 -38 186
39 21 121 114 144 163 13 28 28 79 34 115 5 36 11 70 12 75 3 11 259 15 268 5z
m156 -1102 c23 -11 45 -33 57 -56 19 -35 20 -57 19 -332 l0 -295 -365 0 -365
0 0 295 c-1 428 -19 408 366 407 224 0 254 -2 288 -19z"/>
<path d="M1014 5561 c-5 -3 -20 -26 -33 -51 -13 -25 -30 -52 -38 -61 -15 -18
-18 -16 130 -98 20 -12 54 -30 75 -42 20 -12 55 -31 77 -42 22 -12 42 -24 45
-27 3 -3 15 -10 27 -17 20 -11 24 -7 62 53 23 36 41 69 41 73 0 5 -75 51 -167
102 -220 123 -209 118 -219 110z"/>
<path d="M5755 5557 c-11 -8 -49 -30 -85 -49 -36 -20 -105 -59 -154 -87 -49
-28 -92 -51 -97 -51 -22 0 -17 -27 16 -85 35 -63 57 -78 81 -56 5 5 29 20 54
34 25 14 70 39 100 56 30 17 85 48 123 68 37 20 67 41 67 46 0 11 -73 137 -80
137 -3 0 -14 -6 -25 -13z"/>
<path d="M663 4282 l-63 -3 0 -82 0 -82 212 1 c117 1 218 2 225 3 8 1 12 27
12 81 l0 80 -77 0 c-42 1 -115 2 -162 3 -47 1 -113 1 -147 -1z"/>
<path d="M5789 4282 l-35 -3 -2 -78 c-2 -56 1 -80 10 -83 11 -3 406 -2 431 1
4 1 7 37 7 81 0 69 -2 80 -17 80 -119 3 -295 1 -299 -3 -3 -3 -18 -2 -32 1
-15 4 -43 6 -63 4z"/>
<path d="M1150 3089 c-85 -49 -170 -96 -188 -105 -32 -16 -33 -17 -15 -43 9
-14 22 -35 28 -46 22 -41 40 -65 48 -65 5 0 39 17 75 39 65 37 142 80 211 117
19 11 40 23 45 27 6 4 19 14 30 21 18 12 17 16 -20 79 -22 37 -43 66 -49 66
-5 -1 -80 -41 -165 -90z"/>
<path d="M5437 3114 c-27 -45 -36 -69 -29 -76 12 -12 25 -20 109 -64 32 -18
102 -57 157 -88 54 -31 101 -56 105 -56 9 0 76 113 76 129 0 12 -321 202 -363
215 -13 4 -27 -11 -55 -60z"/>
<path d="M2580 1252 l-76 -3 0 -79 c0 -48 5 -80 11 -81 14 0 1725 -1 1756 0
25 1 25 2 25 81 0 44 -3 80 -6 80 -79 2 -1658 4 -1710 2z"/>
<path d="M2506 920 c-1 -3 -2 -39 -1 -80 l0 -75 895 0 895 0 0 80 0 80 -893 0
c-492 0 -895 -2 -896 -5z"/>
<path d="M2566 579 c-28 -22 -39 -59 -27 -91 5 -13 42 -46 82 -73 41 -28 78
-54 84 -58 37 -31 400 -272 446 -297 79 -42 166 -60 274 -56 95 4 198 32 244
67 13 11 29 19 37 19 7 0 14 3 16 8 2 4 44 34 93 68 283 191 380 258 383 266
2 4 10 8 18 8 17 0 47 45 52 77 2 16 -7 33 -26 52 l-28 29 -812 0 c-778 0
-813 -1 -836 -19z m1331 -155 c-29 -28 -296 -204 -337 -223 -105 -48 -228 -48
-325 1 -34 18 -345 226 -345 231 0 1 229 2 510 2 381 0 506 -3 497 -11z"/>
</g>
</svg>
